<svg width="58" height="82" viewBox="0 0 58 82" fill="none" xmlns="http://www.w3.org/2000/svg">
<path d="M37 0H7C3.134 0 0 3.13403 0 7V75C0 78.866 3.134 82 7 82H51C54.866 82 58 78.866 58 75V21L37 0Z" fill="url(#paint0_linear)"/>
<path d="M37 21V0L58 21H37Z" fill="url(#paint1_linear)"/>
<path d="M16.9142 73V71.128H18.3442V73H16.9142ZM22.8924 73.13C22.1558 73.13 21.5188 72.9697 20.9814 72.649C20.4528 72.3283 20.0411 71.9037 19.7464 71.375C19.4518 70.8377 19.3044 70.257 19.3044 69.633C19.3044 68.9917 19.4474 68.4023 19.7334 67.865C20.0281 67.319 20.4441 66.8857 20.9814 66.565C21.5188 66.2357 22.1601 66.071 22.9054 66.071C23.6508 66.071 24.2878 66.2357 24.8164 66.565C25.3451 66.8857 25.7481 67.3147 26.0254 67.852C26.3114 68.3807 26.4544 68.9527 26.4544 69.568C26.4544 69.7933 26.4414 69.9883 26.4154 70.153H21.1504C21.1938 70.6817 21.3888 71.0977 21.7354 71.401C22.0908 71.7043 22.4981 71.856 22.9574 71.856C23.3041 71.856 23.6291 71.7737 23.9324 71.609C24.2444 71.4357 24.4568 71.2103 24.5694 70.933L26.0644 71.349C25.8131 71.869 25.4101 72.298 24.8554 72.636C24.3008 72.9653 23.6464 73.13 22.8924 73.13ZM21.1114 69.048H24.6734C24.6214 68.5367 24.4264 68.125 24.0884 67.813C23.7591 67.4923 23.3561 67.332 22.8794 67.332C22.4114 67.332 22.0084 67.4923 21.6704 67.813C21.3411 68.125 21.1548 68.5367 21.1114 69.048ZM28.3797 66.188L29.8097 68.32L29.9138 68.554L30.0438 68.32L31.4608 66.188H33.2938L30.9278 69.581L33.3327 73H31.4998L30.0308 70.881L29.9138 70.66L29.8097 70.881L28.3538 73H26.5208L28.9258 69.62L26.5598 66.188H28.3797ZM37.0096 73.13C36.273 73.13 35.636 72.9697 35.0986 72.649C34.57 72.3283 34.1583 71.9037 33.8636 71.375C33.569 70.8377 33.4216 70.257 33.4216 69.633C33.4216 68.9917 33.5646 68.4023 33.8506 67.865C34.1453 67.319 34.5613 66.8857 35.0986 66.565C35.636 66.2357 36.2773 66.071 37.0226 66.071C37.768 66.071 38.405 66.2357 38.9336 66.565C39.4623 66.8857 39.8653 67.3147 40.1426 67.852C40.4286 68.3807 40.5716 68.9527 40.5716 69.568C40.5716 69.7933 40.5586 69.9883 40.5326 70.153H35.2676C35.311 70.6817 35.506 71.0977 35.8526 71.401C36.208 71.7043 36.6153 71.856 37.0746 71.856C37.4213 71.856 37.7463 71.7737 38.0496 71.609C38.3616 71.4357 38.574 71.2103 38.6866 70.933L40.1816 71.349C39.9303 71.869 39.5273 72.298 38.9726 72.636C38.418 72.9653 37.7636 73.13 37.0096 73.13ZM35.2286 69.048H38.7906C38.7386 68.5367 38.5436 68.125 38.2056 67.813C37.8763 67.4923 37.4733 67.332 36.9966 67.332C36.5286 67.332 36.1256 67.4923 35.7876 67.813C35.4583 68.125 35.272 68.5367 35.2286 69.048Z" fill="white"/>
<defs>
<linearGradient id="paint0_linear" x1="2.55882" y1="85.6937" x2="81.2595" y2="45.153" gradientUnits="userSpaceOnUse">
<stop stop-color="#EC671F"/>
<stop offset="1" stop-color="#7143CD"/>
</linearGradient>
<linearGradient id="paint1_linear" x1="37.9265" y1="21.9459" x2="61.4867" y2="4.78752" gradientUnits="userSpaceOnUse">
<stop stop-color="#EC671F"/>
<stop offset="1" stop-color="#7143CD"/>
</linearGradient>
</defs>
</svg>
